<svg xmlns="http://www.w3.org/2000/svg" width="24" height="24" viewBox="0 0 24 24">
  <g fill="none" stroke="#334155" stroke-width="2" stroke-linecap="round" stroke-linejoin="round">
    <path d="M12 8.6a3.4 3.4 0 1 0 0 6.8 3.4 3.4 0 0 0 0-6.8Z"/>
    <path d="M14.1 3.7 14.8 6a7 7 0 0 1 1.3.8l2.3-.6 1.8 3.1-1.7 1.7a6.8 6.8 0 0 1 0 1.6l1.7 1.7-1.8 3.1-2.3-.6a7 7 0 0 1-1.3.8l-.7 2.3h-3.6l-.7-2.3a7 7 0 0 1-1.3-.8l-2.3.6-1.8-3.1 1.7-1.7a6.8 6.8 0 0 1 0-1.6L4.4 9.3l1.8-3.1 2.3.6A7 7 0 0 1 9.8 6l.7-2.3h3.6Z"/>
  </g>
</svg>
